<?xml version="1.0" encoding="UTF-8"?>
<svg id="Layer_1" xmlns="http://www.w3.org/2000/svg" version="1.1" viewBox="0 0 200 200">
  <!-- Generator: Adobe Illustrator 30.1.0, SVG Export Plug-In . SVG Version: 2.1.1 Build 136)  -->
  <defs>
    <style>
      .st0 {
        fill: #1a2305;
      }

      .st1 {
        fill: #b5d337;
      }
    </style>
  </defs>
  <rect class="st0" width="200" height="200"/>
  <rect class="st1" x="21.7351309" y="21.7351309" width="156.5297382" height="156.5297382" rx="20" ry="20"/>
  <path class="st0" d="M115.5505198,155.1828243c-.3904373,0-.7808746-.1467702-1.168462-.4374608-.3904373-.2921155-.6839778-.9276449-.8777715-1.8994633l-11.2428848-45.2622297c-.0968969-.7780247-.3875874-1.1428129-.8749216-1.0943644-.4873342.0498734-.8293231.4146615-1.0231168,1.0943644l-12.5566921,45.2622297c-.2906906.9718184-.6070303,1.6073478-.9490192,1.8994633-.3419889.2906906-.706777.4374608-1.0943644.4374608-.3904373,0-.8036739-.1467702-1.2397097-.4374608-.4388857-.2921155-.7552255-.9276449-.9490192-1.8994633l-23.0700006-92.5678429c-.6811279-2.7245115-1.4363533-4.6225498-2.2628265-5.694115-.8293231-1.0701402-2.2143781-1.7997165-4.1608648-2.1901539l-2.1915788-.4388857c-1.3622557-.2921155-2.0433836-.92337-2.0433836-1.8980383,0-.9718184.7295763-1.4591526,2.1915788-1.4591526h23.5060364c1.3622557,0,2.0433836.5357826,2.0433836,1.6059228,0,.8763465-.7295763,1.4591526-2.1887289,1.7512681l-1.6073478.2921155c-1.6557962.2921155-2.7017122.8535473-3.1377481,1.6800204-.4388857.8278981-.4160865,2.3126999.0712477,4.4529803l17.2305403,71.2519604c.1937937.6811279.5101334,1.0216918.9490192,1.0216918.4360358,0,.7523756-.3405639.9490192-1.0216918l6.5690366-23.7995769c1.0715652-3.6977549,1.6073478-7.1048192,1.6073478-10.221193,0-3.1135239-.4901841-6.5704616-1.4620025-10.3665382l-6.1301509-24.966614c-.6839778-2.7245115-1.3394565-4.6724232-1.9721359-5.8408853-.6355294-1.1670371-1.4848018-1.84674-2.556367-2.0433836l-2.1887289-.4388857c-1.3651057-.2921155-2.0433836-.92337-2.0433836-1.8980383,0-.9718184.7295763-1.4591526,2.1887289-1.4591526h20.0035002c1.3622557,0,2.0433836.5357826,2.0433836,1.6059228,0,.8763465-.7295763,1.4591526-2.1887289,1.7512681l-1.6073478.2921155c-1.2653589.1966436-2.0205844.7310013-2.2628265,1.6059228-.245092.8763465-.122546,2.3867975.3647881,4.5270779l4.9645387,20.8784218c.1937937.6825528.5101334,1.0231168.9490192,1.0231168s.7523756-.3405639.9490192-1.0231168l5.2552293-17.8119214c1.0715652-3.6991798,1.4848018-6.1330008,1.2425596-7.3014628-.245092-1.1670371-.8036739-1.7997165-1.6785955-1.8980383l-1.6073478-.2921155c-1.4591526-.2921155-2.1887289-.8749216-2.1887289-1.7512681,0-1.0701402.678278-1.6059228,2.0433836-1.6059228h13.8704994c1.6529463,0,2.4822694.5357826,2.4822694,1.6059228,0,.9732434-.8293231,1.5574744-2.4822694,1.7512681l-1.6044979.1467702c-1.2682088.0983218-2.3141248.8763465-3.140598,2.3354991-.8293231,1.4605776-1.7298938,3.847375-2.7017122,7.1546926l-5.5487697,19.1271537c-1.0715652,3.602283-1.630147,6.9851231-1.6785955,10.1470954-.0484484,3.1648222.3647881,6.6431342,1.2425596,10.4392109l6.5690366,27.4503083c.1937937.6825528.5101334,1.0216918.9490192,1.0216918s.706777-.339139.8036739-1.0216918l16.7916545-67.3091135c1.3622557-5.6442416.4844843-8.710742-2.6304645-9.1995012l-1.6044979-.2921155c-1.4591526-.2921155-2.1915788-.92337-2.1915788-1.8980383,0-.9718184.6811279-1.4591526,2.0462335-1.4591526h16.3527688c1.6529463,0,2.4822694.5357826,2.4822694,1.6059228,0,.9732434-.8293231,1.5574744-2.4822694,1.7512681l-1.6073478.1467702c-1.2653589.0983218-2.3597233.8535473-3.2859433,2.2628265-.9262199,1.4121291-1.7754923,3.8217259-2.553517,7.2273652l-22.6311148,91.2540356c-.1966436.9718184-.4873342,1.6073478-.8777715,1.8994633-.3875874.2906906-.7780247.4374608-1.1656121.4374608Z"/>
</svg>